<?xml version="1.0" standalone="no"?><!DOCTYPE svg PUBLIC "-//W3C//DTD SVG 1.1//EN" "http://www.w3.org/Graphics/SVG/1.1/DTD/svg11.dtd"><svg width="128.125" height="128" viewBox="0 0 128.125 128" version="1.1" xmlns="http://www.w3.org/2000/svg" xmlns:xlink="http://www.w3.org/1999/xlink"><defs><style type="text/css"><![CDATA[
@font-face { font-family: ifont; src: url("//at.alicdn.com/t/font_1442373896_4754455.eot?#iefix") format("embedded-opentype"), url("//at.alicdn.com/t/font_1442373896_4754455.woff") format("woff"), url("//at.alicdn.com/t/font_1442373896_4754455.ttf") format("truetype"), url("//at.alicdn.com/t/font_1442373896_4754455.svg#ifont") format("svg"); }

]]></style></defs><g class="transform-group"><g transform="scale(0.125, 0.125)"><path d="M995.52 906.752c-6.432-4.256-123.136-80.8-296.736-118.368 63.68-80.672 104.576-189.184 121.952-261.408 24.128-100.096 14.752-295.936-81.376-417.984C683.168 37.664 604.544 0 512 0c-92.544 0-171.168 37.696-227.328 108.992C188.544 231.008 179.2 426.848 203.296 526.944c17.376 72.224 58.24 180.736 121.952 261.408-173.6 37.568-290.304 114.112-296.704 118.368-23.456 15.616-33.952 44.8-25.76 71.744C10.912 1005.504 35.84 1024 64 1024l896 0c28.192 0 53.056-18.496 61.248-45.504C1029.472 951.552 1018.976 922.368 995.52 906.752zM648.544 748.736l-10.432 13.248c-76.32 87.68-175.84 87.68-252.128 0l-10.464-13.248c-89.12-112.928-133.344-262.304-114.304-404.8C278.656 207.008 357.12 64 512 64c154.88 0 233.376 143.04 250.816 279.968C781.792 486.528 737.728 635.744 648.544 748.736zM64 960c4.416-2.944 112.832-74.048 274.752-109.056l79.488-17.184C446.624 852.384 477.76 864 512 864c34.272 0 65.376-11.616 93.76-30.24l79.488 17.184c160.64 34.752 268.672 105.056 274.752 109.056L64 960z" fill="#ecf0f1"></path></g></g></svg>